<?xml version="1.0"?>
<svg width="721" height="721" xmlns="http://www.w3.org/2000/svg" xmlns:svg="http://www.w3.org/2000/svg">
 <defs>
  <clipPath id="clip0_1637_2935">
   <rect fill="white" height="720" id="svg_1" transform="translate(0.606934 0.899902)" width="720"/>
  </clipPath>
  <clipPath id="clip1_1637_2935">
   <rect fill="white" height="479.82" id="svg_2" transform="translate(118.557 120.758)" width="484.14"/>
  </clipPath>
 </defs>
 <g class="layer">
  <title>Layer 1</title>
  <path d="m134.72,104.73c-1.59,1.94 -2.8,3.91 -4.36,7.3c-0.68,1.48 -1.38,3.18 -2.15,5.11c-0.86,2.16 -1.78,4.58 -2.76,7.28c-1.08,2.97 -3.46,9.84 -4.75,13.77c-1.4,4.25 -2.86,8.82 -4.33,13.74c-1.56,5.23 -3.14,10.8 -4.68,16.72c-1.63,6.22 -4.78,19.68 -6.27,26.91c-1.55,7.51 -3.01,15.32 -4.39,23.38c-1.41,8.26 -2.72,16.73 -3.93,25.38c-1.22,8.77 -3.36,26.64 -4.27,35.69c-0.91,9.08 -1.68,18.2 -2.33,27.33c-0.65,9.13 -1.17,18.24 -1.57,27.33c-0.39,9.04 -0.85,26.93 -0.9,35.74c-0.05,8.72 0.04,17.33 0.33,25.82c0.29,8.37 0.76,16.6 1.5,24.68c0.72,7.94 2.86,23.33 4.34,30.72c1.46,7.25 3.21,14.28 5.32,21.02c2.06,6.59 4.45,12.91 7.2,18.86c2.69,5.81 9.02,16.41 12.66,21.09c3.58,4.6 7.52,8.78 11.71,12.55c4.16,3.75 8.61,7.1 13.23,10.12c4.62,3.01 14.34,8.18 19.36,10.4c5.03,2.23 10.19,4.2 15.46,5.92c5.3,1.74 10.71,3.23 16.22,4.52c5.56,1.3 16.97,3.33 22.81,4.11c5.89,0.79 11.84,1.39 17.82,1.83c5.99,0.45 11.99,0.73 17.97,0.86c5.94,0.13 17.67,0.02 23.41,-0.23c5.67,-0.24 11.26,-0.62 16.79,-1.16c5.47,-0.53 10.88,-1.22 16.23,-2.08c5.32,-0.85 15.83,-3.02 21.03,-4.34c5.18,-1.32 10.29,-2.82 15.31,-4.51c4.97,-1.68 9.83,-3.53 14.55,-5.59c4.64,-2.03 13.45,-6.59 17.55,-9.13c4.03,-2.49 7.85,-5.18 11.46,-8.02c3.55,-2.79 6.89,-5.72 10.04,-8.77c3.09,-3 8.74,-9.25 11.31,-12.46c2.52,-3.15 4.86,-6.37 7.02,-9.63c2.12,-3.2 4.07,-6.43 5.85,-9.68c1.75,-3.18 4.8,-9.55 6.11,-12.71c1.29,-3.09 2.42,-6.16 3.42,-9.21c0.97,-2.97 1.8,-5.92 2.5,-8.83c0.68,-2.83 1.7,-8.36 2.05,-11.04c0.34,-2.61 0.56,-5.17 0.66,-7.66c0.11,-2.43 0.11,-4.81 0,-7.12c-0.1,-2.26 -0.55,-6.59 -0.89,-8.65c-0.34,-2.02 -0.76,-3.98 -1.27,-5.86c-0.5,-1.84 -1.09,-3.62 -1.78,-5.32c-0.67,-1.67 -2.25,-4.8 -3.16,-6.25c-0.9,-1.43 -1.89,-2.78 -2.99,-3.99c-1.09,-1.21 -2.3,-2.3 -3.6,-3.24c-1.32,-0.94 -4.27,-2.38 -5.88,-2.86c-1.66,-0.49 -3.42,-0.78 -5.23,-0.9c-1.87,-0.12 -3.81,-0.06 -5.79,0.18c-2.04,0.24 -6.21,1.21 -8.33,1.92c-2.17,0.74 -4.36,1.66 -6.53,2.8c-2.24,1.17 -4.48,2.57 -6.69,4.2c-2.29,1.7 -6.81,5.81 -9.02,8.21c-2.3,2.5 -4.53,5.25 -6.72,8.18c-2.24,3.01 -4.41,6.2 -6.51,9.53c-2.14,3.38 -6.19,10.46 -8.1,14.11c-1.92,3.67 -3.74,7.43 -5.45,11.27c-1.71,3.85 -3.3,7.79 -4.73,11.81c-1.45,4.04 -3.93,12.33 -4.94,16.58c-1.02,4.27 -1.87,8.59 -2.57,12.94c-0.7,4.35 -1.25,8.7 -1.66,13.05c-0.41,4.31 -0.86,12.83 -0.91,17.01c-0.05,4.12 0.03,8.18 0.3,12.17c0.27,3.94 0.7,7.83 1.37,11.63c0.66,3.77 2.58,11.12 3.88,14.66c1.3,3.54 2.86,7 4.69,10.3c1.84,3.33 3.94,6.53 6.31,9.54c2.4,3.06 7.95,8.71 11.08,11.27c3.18,2.61 6.61,5 10.23,7.18c3.67,2.22 7.52,4.21 11.5,5.99c4.02,1.8 12.37,4.79 16.65,6c4.29,1.21 8.65,2.2 13.04,3.02c4.39,0.83 8.81,1.47 13.24,2c4.42,0.52 13.21,1.24 17.58,1.48c4.33,0.24 8.64,0.38 12.92,0.42c4.25,0.04 8.47,-0.03 12.66,-0.23c4.17,-0.19 12.41,-0.91 16.49,-1.46c4.05,-0.54 8.06,-1.21 12.01,-2c3.92,-0.78 7.77,-1.69 11.55,-2.7c3.73,-1 10.95,-3.28 14.43,-4.55c3.41,-1.25 6.73,-2.58 9.95,-3.96c3.16,-1.35 6.22,-2.76 9.19,-4.18c2.9,-1.38 8.43,-4.14 11.07,-5.49c2.56,-1.31 5.03,-2.59 7.41,-3.89c2.31,-1.26 4.53,-2.53 6.65,-3.84c2.06,-1.27 5.91,-3.92 7.68,-5.31c1.73,-1.36 3.37,-2.78 4.93,-4.22c1.53,-1.41 2.97,-2.84 4.37,-4.27c1.37,-1.4 3.96,-4.16 5.22,-5.5c1.23,-1.31 2.42,-2.59 3.57,-3.86c1.12,-1.24 2.2,-2.47 3.21,-3.7c0.99,-1.2 2.8,-3.61 3.6,-4.82c0.79,-1.19 1.51,-2.4 2.18,-3.61c0.66,-1.19 1.28,-2.4 1.87,-3.61c0.59,-1.2 1.72,-3.6 2.28,-4.81c0.56,-1.2 1.12,-2.41 1.66,-3.64c0.54,-1.23 1.07,-2.47 1.56,-3.74c0.5,-1.28 1.4,-3.93 1.79,-5.3c0.4,-1.39 0.75,-2.8 1.09,-4.22c0.33,-1.42 0.64,-2.85 0.94,-4.27c0.29,-1.41 0.86,-4.16 1.14,-5.5c0.28,-1.31 0.56,-2.6 0.82,-3.86c0.26,-1.25 0.5,-2.48 0.72,-3.7c0.21,-1.21 0.55,-3.62 0.67,-4.82c0.11,-1.2 0.19,-2.39 0.24,-3.57c0.05,-1.17 0.08,-2.33 0.09,-3.47c0.01,-1.12 0.01,-3.28 0.01,-4.31c0,-1.01 0.01,-2 0.03,-2.96c0.02,-0.95 0.07,-1.88 0.13,-2.8l0.08,-0.91" fill="#d4aaff" id="svg_6" stroke="#000000" stroke-width="5" transform="matrix(1 0 0 1 0 0)"/>
  <path d="m22.93,231.82c-0.58,0.49 -0.27,0.46 0.39,0.17c0.31,-0.14 1.08,-0.51 1.56,-0.76c0.55,-0.28 1.85,-0.99 2.63,-1.43c0.86,-0.49 1.81,-1.05 2.86,-1.69c1.15,-0.7 2.41,-1.49 3.76,-2.37c1.48,-0.96 4.81,-3.2 6.66,-4.48c1.98,-1.37 4.07,-2.85 6.28,-4.41c2.31,-1.64 4.72,-3.36 7.21,-5.15c2.58,-1.85 7.97,-5.7 10.77,-7.69c2.85,-2.03 5.75,-4.08 8.68,-6.14c2.96,-2.08 5.93,-4.16 8.92,-6.24c2.98,-2.07 8.88,-6.14 11.8,-8.12c2.87,-1.95 5.71,-3.87 8.51,-5.72c2.75,-1.82 5.46,-3.59 8.13,-5.3c2.61,-1.66 7.68,-4.79 10.14,-6.24c2.38,-1.4 4.72,-2.73 7.01,-3.98c2.21,-1.2 4.36,-2.32 6.46,-3.36c2.02,-1 5.89,-2.77 7.74,-3.53c1.77,-0.73 3.5,-1.39 5.18,-1.95c1.63,-0.54 3.23,-1.01 4.8,-1.39c1.54,-0.37 4.57,-0.89 6.08,-1.04c1.48,-0.15 2.96,-0.21 4.41,-0.16c1.43,0.05 2.84,0.2 4.19,0.48c1.34,0.28 3.89,1.18 5.06,1.81c1.18,0.65 2.29,1.45 3.29,2.39c1.04,0.98 1.98,2.14 2.82,3.42c0.89,1.37 2.37,4.57 2.99,6.38c0.66,1.93 1.2,4.02 1.67,6.23c0.5,2.34 0.9,4.81 1.25,7.4c0.36,2.71 0.91,8.47 1.12,11.51c0.22,3.14 0.38,6.36 0.5,9.65c0.12,3.35 0.2,6.74 0.23,10.17c0.04,3.44 0,10.33 -0.06,13.75c-0.06,3.39 -0.16,6.75 -0.3,10.06c-0.13,3.26 -0.29,6.45 -0.49,9.58c-0.19,3.05 -0.64,8.89 -0.91,11.65c-0.25,2.67 -0.53,5.24 -0.82,7.71c-0.28,2.38 -0.57,4.66 -0.85,6.84c-0.27,2.09 -0.79,6.01 -1.03,7.84c-0.22,1.74 -0.43,3.39 -0.63,4.97c-0.19,1.49 -0.36,2.91 -0.54,4.24c-0.17,1.26 -0.49,3.58 -0.66,4.63c-0.15,0.98 -0.31,1.89 -0.43,2.72c-0.11,0.75 -0.2,1.41 -0.22,1.98c-0.02,0.48 0.08,1.2 0.29,1.34c0.18,0.13 0.51,0.08 0.84,-0.09c0.45,-0.23 0.93,-0.64 1.49,-1.16c0.68,-0.63 2.27,-2.33 3.21,-3.39c1.05,-1.19 2.19,-2.53 3.44,-4c1.36,-1.6 2.82,-3.33 4.41,-5.19c1.69,-1.98 5.43,-6.3 7.49,-8.63c2.16,-2.44 4.42,-4.96 6.8,-7.55c2.44,-2.66 4.97,-5.36 7.57,-8.07c2.64,-2.75 8.09,-8.23 10.89,-10.92c2.78,-2.68 5.6,-5.3 8.42,-7.86c2.78,-2.52 5.55,-4.95 8.3,-7.3c2.67,-2.28 7.86,-6.51 10.36,-8.44c2.39,-1.85 4.72,-3.58 7,-5.19c2.18,-1.54 4.32,-2.98 6.41,-4.3c2.01,-1.27 5.92,-3.53 7.83,-4.53c1.84,-0.96 3.65,-1.84 5.43,-2.63c1.72,-0.76 3.41,-1.45 5.06,-2.05c1.6,-0.59 4.69,-1.57 6.18,-1.97c1.43,-0.38 2.83,-0.7 4.17,-0.91c1.28,-0.2 2.52,-0.31 3.69,-0.29c1.11,0.03 3.15,0.43 4.02,0.84c0.86,0.41 1.63,0.99 2.26,1.69c0.66,0.74 1.19,1.63 1.6,2.63c0.44,1.08 0.98,3.59 1.11,5c0.13,1.52 0.14,3.14 0.03,4.85c-0.12,1.81 -0.37,3.71 -0.75,5.68c-0.4,2.07 -1.58,6.41 -2.36,8.68c-0.81,2.34 -1.76,4.73 -2.82,7.15c-1.09,2.47 -2.31,4.95 -3.63,7.44c-1.34,2.52 -4.3,7.51 -5.9,9.96c-1.6,2.45 -3.27,4.85 -4.99,7.19c-1.69,2.3 -3.4,4.53 -5.1,6.66c-1.65,2.07 -4.86,5.89 -6.38,7.63c-1.44,1.64 -2.84,3.18 -4.19,4.61c-1.28,1.36 -2.53,2.63 -3.75,3.81c-1.16,1.13 -3.41,3.21 -4.51,4.16c-1.05,0.92 -2.07,1.77 -3.07,2.56c-0.94,0.74 -1.84,1.4 -2.7,1.98c-0.79,0.53 -2.21,1.33 -2.84,1.56c-0.52,0.18 -1.03,0.27 -1.31,0.09c-0.29,-0.19 -0.33,-0.67 -0.2,-1.27c0.18,-0.81 1.28,-3.06 2.15,-4.53c1.02,-1.72 2.28,-3.65 3.76,-5.76c1.64,-2.32 3.51,-4.8 5.61,-7.42c2.24,-2.79 7.38,-8.7 10.27,-11.78c3.01,-3.2 6.21,-6.43 9.6,-9.67c3.45,-3.3 7.05,-6.57 10.8,-9.77c3.76,-3.21 11.54,-9.34 15.55,-12.19c3.96,-2.82 7.98,-5.49 12.05,-7.99c4.01,-2.46 8.06,-4.77 12.13,-6.9c3.99,-2.09 11.95,-5.82 15.9,-7.44c3.85,-1.59 7.69,-3.01 11.49,-4.29c3.7,-1.24 7.37,-2.35 10.97,-3.32c3.51,-0.95 10.34,-2.53 13.65,-3.18c3.2,-0.63 6.32,-1.16 9.36,-1.61c2.93,-0.43 5.77,-0.77 8.51,-1.03c2.63,-0.25 7.57,-0.55 9.88,-0.61c2.19,-0.05 4.28,-0.04 6.26,0.03c1.88,0.07 3.66,0.2 5.35,0.38c1.6,0.18 4.54,0.66 5.87,0.97c1.27,0.29 2.46,0.63 3.56,1.03c1.05,0.38 2.01,0.81 2.88,1.3c0.84,0.47 2.28,1.56 2.87,2.18c0.58,0.61 1.06,1.27 1.39,1.97c0.33,0.7 0.52,1.46 0.54,2.23c0.02,0.8 -0.46,2.47 -0.94,3.31c-0.51,0.89 -1.2,1.77 -2,2.63c-0.83,0.89 -1.77,1.75 -2.77,2.57c-1.02,0.83 -3.19,2.34 -4.3,3.01c-1.08,0.66 -2.15,1.25 -3.18,1.81c-0.96,0.53 -1.86,1.01 -2.63,1.48c-0.69,0.42 -1.7,1.2 -1.88,1.59c-0.15,0.34 -0.08,0.73 0.14,1.08c0.26,0.41 0.72,0.83 1.25,1.29c0.61,0.53 2.11,1.79 2.95,2.55c0.91,0.84 1.87,1.76 2.87,2.78c1.06,1.08 2.15,2.25 3.25,3.5c1.15,1.31 3.49,4.16 4.66,5.7c1.22,1.6 2.43,3.29 3.68,5.07c1.3,1.87 2.63,3.86 4.01,5.96c1.45,2.21 4.55,7.04 6.21,9.66c1.75,2.76 3.57,5.65 5.46,8.67c1.97,3.15 4.01,6.42 6.11,9.81c2.17,3.5 6.69,10.84 9.03,14.66c2.39,3.89 4.79,7.83 7.2,11.79c2.4,3.95 4.78,7.86 7.1,11.7c2.27,3.75 6.54,10.86 8.51,14.18c1.87,3.14 3.65,6.13 5.33,8.96c1.6,2.69 3.13,5.26 4.6,7.69c1.4,2.32 4.08,6.66 5.37,8.69c1.25,1.95 2.47,3.81 3.7,5.57c1.18,1.7 2.36,3.31 3.56,4.82c1.15,1.46 3.49,4.14 4.7,5.33c1.16,1.15 2.34,2.19 3.6,3.03c1.17,0.79 2.4,1.41 3.67,1.72c1.21,0.29 3.8,0.02 5.01,-0.57c1.35,-0.65 2.62,-1.68 3.86,-2.94c1.38,-1.39 2.69,-3.07 3.99,-4.95c1.42,-2.05 4.19,-6.78 5.6,-9.43c1.48,-2.79 2.94,-5.72 4.41,-8.77c1.51,-3.12 2.99,-6.31 4.48,-9.54c1.5,-3.23 4.44,-9.65 5.9,-12.78c1.43,-3.07 2.86,-6.07 4.28,-8.99c1.39,-2.85 2.77,-5.63 4.16,-8.31c1.35,-2.61 4.05,-7.56 5.4,-9.88c1.31,-2.24 2.63,-4.39 3.96,-6.42c1.28,-1.96 2.58,-3.82 3.89,-5.57c1.26,-1.68 3.79,-4.73 5.07,-6.09c1.22,-1.29 2.44,-2.46 3.69,-3.47c1.16,-0.93 2.32,-1.72 3.5,-2.27c1.07,-0.5 3.24,-0.91 4.21,-0.72c0.99,0.19 1.93,0.72 2.73,1.47c0.9,0.84 1.65,1.98 2.3,3.33c0.74,1.52 1.88,5.29 2.34,7.52c0.5,2.43 0.87,5.09 1.17,7.93c0.32,3.03 0.54,6.23 0.68,9.6c0.15,3.51 0.25,10.95 0.2,14.84c-0.05,3.98 -0.16,8.03 -0.33,12.11c-0.17,4.09 -0.39,8.17 -0.65,12.19c-0.26,3.96 -0.88,11.57 -1.22,15.16c-0.33,3.45 -0.69,6.75 -1.05,9.9c-0.34,3.01 -0.69,5.88 -1.02,8.61c-0.31,2.59 -0.87,7.35 -1.08,9.52c-0.2,2.05 -0.37,3.98 -0.49,5.81c-0.11,1.73 -0.18,3.37 -0.2,4.93c-0.02,1.49 0.07,4.31 0.2,5.64c0.12,1.3 0.29,2.55 0.6,3.73c0.29,1.14 0.7,2.23 1.27,3.22c0.57,0.96 2.18,2.64 3.24,3.3c1.1,0.68 2.43,1.23 3.9,1.65c1.59,0.45 3.39,0.76 5.35,0.96c2.13,0.22 6.96,0.34 9.65,0.28c2.89,-0.07 5.95,-0.23 9.19,-0.45c3.4,-0.23 6.95,-0.53 10.65,-0.87c3.84,-0.35 11.9,-1.14 16.1,-1.55c4.29,-0.42 8.64,-0.85 13.03,-1.28c4.4,-0.43 8.8,-0.85 13.15,-1.26l4.29,-0.39" fill="#ff7f00" id="svg_9" stroke="#000000" stroke-dasharray="null" stroke-linecap="null" stroke-linejoin="null" stroke-opacity="null" stroke-width="5"/>
  <path d="m193.99,80.46c1.77,0 2.09,0 2.88,0.06c0.48,0.03 1.03,0.09 1.65,0.18c1.48,0.21 2.36,0.37 3.32,0.56c1.06,0.22 2.23,0.49 3.49,0.83c1.37,0.37 2.85,0.81 4.43,1.37c3.54,1.24 5.47,2.06 7.52,2.96c2.18,0.96 4.48,2.04 6.89,3.26c2.54,1.29 5.19,2.7 7.94,4.3c5.89,3.42 8.97,5.43 12.17,7.54c3.31,2.19 6.71,4.55 10.17,7.05c3.56,2.58 7.19,5.28 10.85,8.17c7.55,5.95 11.33,9.18 15.14,12.47c3.83,3.3 7.6,6.66 11.3,10.05c3.64,3.34 7.16,6.64 10.52,9.93c6.29,6.16 9.1,9.12 11.72,11.94c2.47,2.67 4.77,5.26 6.91,7.8c2.04,2.43 3.96,4.83 5.76,7.22c3.47,4.64 5.07,7.03 6.65,9.41c1.58,2.39 3.13,4.83 4.65,7.35c1.55,2.55 3.08,5.19 4.62,7.92c3.2,5.72 4.81,8.79 6.45,11.95c1.67,3.22 3.33,6.52 4.92,9.9c1.6,3.38 3.14,6.77 4.52,10.23c2.68,6.72 3.72,10.09 4.64,13.41c0.91,3.24 1.64,6.48 2.21,9.71c0.56,3.19 0.98,6.38 1.2,9.59c0.43,6.4 0.31,9.64 0.15,12.88c-0.16,3.27 -0.47,6.56 -0.91,9.85c-0.45,3.33 -1.03,6.68 -1.79,10.01c-1.55,6.81 -2.63,10.2 -3.76,13.61c-1.14,3.46 -2.42,6.93 -3.83,10.38c-1.43,3.51 -2.98,7.02 -4.68,10.5c-3.48,7.13 -5.48,10.63 -7.51,14.16c-2.06,3.58 -4.23,7.14 -6.47,10.68c-2.27,3.58 -4.6,7.14 -7.01,10.68c-4.85,7.14 -7.38,10.64 -9.92,14.16c-2.55,3.53 -5.14,7.05 -7.77,10.56c-2.65,3.53 -5.34,7.05 -8.08,10.56c-5.54,7.09 -8.4,10.61 -11.27,14.16c-2.9,3.57 -5.83,7.14 -8.78,10.72c-2.97,3.59 -5.95,7.19 -8.95,10.8c-6.01,7.24 -9.02,10.88 -12.02,14.52c-2.99,3.63 -5.96,7.26 -8.9,10.87c-2.92,3.58 -5.8,7.13 -8.63,10.66c-5.54,6.89 -8.21,10.27 -10.82,13.6c-2.56,3.26 -5.05,6.48 -7.47,9.66c-2.37,3.12 -4.68,6.19 -6.9,9.25c-4.3,5.93 -6.31,8.87 -8.27,11.76c-1.91,2.82 -3.73,5.61 -5.48,8.35c-1.69,2.66 -3.31,5.26 -4.83,7.81c-2.88,4.82 -4.18,7.14 -5.41,9.37c-1.18,2.13 -2.27,4.18 -3.28,6.15c-0.96,1.87 -1.85,3.65 -2.64,5.36c-1.44,3.1 -2.03,4.54 -2.57,5.89c-0.5,1.26 -0.94,2.45 -1.32,3.57c-0.37,1.06 -0.69,2.07 -0.99,3.04c-0.56,1.81 -0.81,2.67 -1.06,3.5c-0.24,0.8 -0.46,1.55 -0.65,2.28c-0.18,0.68 -0.35,1.31 -0.45,1.9c-0.18,1.02 -0.19,1.46 -0.14,1.83c0.04,0.31 0.14,0.58 0.31,0.71c0.17,0.13 0.44,0.13 0.72,0.01c0.76,-0.34 1.17,-0.8 1.65,-1.3c0.55,-0.57 1.13,-1.27 1.75,-2.1c0.68,-0.92 1.4,-1.97 2.12,-3.17c1.64,-2.72 2.45,-4.34 3.3,-6.08c0.91,-1.85 1.82,-3.87 2.72,-6.04c0.96,-2.29 1.91,-4.74 2.82,-7.36c1.96,-5.63 2.85,-8.72 3.74,-11.94c0.93,-3.34 1.8,-6.83 2.61,-10.44c0.83,-3.71 1.6,-7.54 2.24,-11.48c1.31,-8.09 1.73,-12.28 2.09,-16.53c0.37,-4.3 0.61,-8.67 0.72,-13.09c0.1,-4.47 0.09,-9 -0.13,-13.55c-0.45,-9.24 -1.02,-13.89 -1.66,-18.56c-0.65,-4.7 -1.47,-9.41 -2.47,-14.09c-1.01,-4.72 -2.17,-9.42 -3.58,-14.05c-2.86,-9.35 -4.7,-13.87 -6.61,-18.36c-1.91,-4.5 -4.01,-8.89 -6.27,-13.14c-2.25,-4.23 -4.63,-8.34 -7.21,-12.18c-5.09,-7.58 -7.94,-10.93 -10.81,-14.14c-2.83,-3.17 -5.79,-6.09 -8.85,-8.75c-3.03,-2.63 -6.15,-5.05 -9.39,-7.09c-6.41,-4.05 -9.83,-5.49 -13.22,-6.8c-3.39,-1.31 -6.84,-2.33 -10.34,-3.06c-3.5,-0.72 -7.04,-1.2 -10.61,-1.28c-7.18,-0.15 -10.81,0.43 -14.42,1.11c-3.65,0.69 -7.29,1.68 -10.9,2.97c-3.65,1.31 -7.28,2.87 -10.83,4.83c-7.23,3.99 -10.68,6.64 -14.12,9.36c-3.48,2.75 -6.86,5.74 -10.15,8.93c-3.3,3.2 -6.51,6.56 -9.58,10.09c-6.08,7.01 -8.86,10.76 -11.57,14.5c-2.68,3.69 -5.22,7.44 -7.61,11.25c-2.36,3.75 -4.59,7.53 -6.63,11.38c-3.96,7.48 -5.63,11.3 -7.22,15.07c-1.56,3.69 -2.97,7.39 -4.24,11.08c-1.25,3.62 -2.38,7.23 -3.36,10.83c-1.91,7.02 -2.63,10.52 -3.31,13.97c-0.66,3.37 -1.22,6.71 -1.65,9.99c-0.42,3.2 -0.74,6.34 -0.87,9.41c-0.25,5.87 -0.09,8.69 0.16,11.4c0.24,2.64 0.63,5.21 1.21,7.67c0.57,2.44 1.29,4.82 2.26,7.05c1.96,4.54 3.36,6.61 4.82,8.64c1.5,2.09 3.22,4.08 5.12,5.95c1.97,1.93 4.14,3.77 6.54,5.41c5.11,3.49 8.06,4.86 11.12,6.24c3.18,1.44 6.53,2.72 10.03,3.86c3.6,1.18 7.33,2.23 11.18,3.08c7.93,1.75 12.05,2.27 16.21,2.76c4.22,0.5 8.48,0.84 12.79,1.06c4.33,0.22 8.69,0.32 13.06,0.27c8.74,-0.1 13.09,-0.4 17.43,-0.73c4.32,-0.32 8.61,-0.75 12.88,-1.27c4.25,-0.52 8.46,-1.11 12.64,-1.81c8.28,-1.39 12.35,-2.25 16.37,-3.11c3.98,-0.86 7.89,-1.77 11.72,-2.72c3.76,-0.93 7.42,-1.89 10.98,-2.89c6.79,-1.9 9.99,-2.89 13.07,-3.85c2.96,-0.92 5.79,-1.85 8.5,-2.76c2.59,-0.88 5.06,-1.74 7.42,-2.6c4.37,-1.59 6.38,-2.38 8.28,-3.13c1.81,-0.72 3.52,-1.42 5.15,-2.13c1.55,-0.67 3.03,-1.35 4.44,-2.04c2.67,-1.33 3.92,-2.05 5.12,-2.76c1.17,-0.7 2.29,-1.41 3.35,-2.15c1.03,-0.71 2,-1.43 2.91,-2.19c1.71,-1.43 2.46,-2.19 3.16,-2.94c0.67,-0.72 1.27,-1.45 1.8,-2.19c0.5,-0.71 0.95,-1.41 1.29,-2.15c0.63,-1.36 0.8,-2.07 0.9,-2.76c0.1,-0.67 0.1,-1.35 -0.01,-2.01c-0.11,-0.68 -0.34,-1.37 -0.69,-2.01c-0.79,-1.44 -1.43,-2.08 -2.11,-2.75c-0.74,-0.73 -1.6,-1.41 -2.57,-2.06c-1.04,-0.69 -2.2,-1.34 -3.48,-1.89c-2.83,-1.21 -4.45,-1.62 -6.16,-2.01c-1.81,-0.41 -3.73,-0.72 -5.75,-0.93c-2.11,-0.21 -4.33,-0.32 -6.63,-0.26c-4.87,0.13 -7.43,0.5 -10.05,0.93c-2.69,0.44 -5.43,1.03 -8.19,1.77c-2.8,0.75 -5.61,1.63 -8.39,2.72c-5.59,2.2 -8.29,3.64 -10.95,5.14c-2.66,1.5 -5.25,3.15 -7.76,4.93c-2.5,1.78 -4.94,3.66 -7.26,5.72c-4.58,4.06 -6.67,6.34 -8.72,8.63c-2.02,2.26 -3.94,4.6 -5.77,7c-1.8,2.36 -3.52,4.76 -5.12,7.2c-3.13,4.75 -4.52,7.17 -5.87,9.55c-1.32,2.33 -2.55,4.67 -3.7,7.01c-1.13,2.3 -2.18,4.6 -3.13,6.93c-1.85,4.56 -2.6,6.88 -3.3,9.19c-0.69,2.27 -1.29,4.55 -1.76,6.82c-0.46,2.23 -0.84,4.45 -1.02,6.66c-0.34,4.28 -0.22,6.4 0.02,8.45c0.24,2.03 0.67,4.02 1.35,5.9c0.69,1.92 1.62,3.8 2.88,5.45c2.73,3.6 4.7,5 6.77,6.43c2.22,1.53 4.7,2.88 7.4,4.1c2.86,1.29 5.94,2.44 9.23,3.39c7.05,2.04 10.89,2.67 14.85,3.31c4.09,0.67 8.32,1.19 12.64,1.62c4.41,0.44 8.89,0.79 13.42,1.05c9.15,0.52 13.73,0.63 18.31,0.74c4.56,0.11 9.09,0.17 13.58,0.17c4.45,0 8.84,-0.04 13.18,-0.17c8.44,-0.24 12.53,-0.47 16.53,-0.74c3.91,-0.26 7.73,-0.58 11.46,-0.97c3.64,-0.39 7.19,-0.83 10.64,-1.39c6.66,-1.08 9.84,-1.82 12.92,-2.57c2.99,-0.73 5.85,-1.53 8.59,-2.38c2.62,-0.82 5.09,-1.67 7.41,-2.59c4.19,-1.67 6.01,-2.6 7.66,-3.47c1.51,-0.8 2.84,-1.59 4.01,-2.34c1.03,-0.67 1.9,-1.29 2.62,-1.85c1.04,-0.81 1.35,-1.1 1.53,-1.28c0.08,-0.09 0.06,-0.11 -0.03,-0.05c-0.17,0.11 -0.39,0.29 -0.64,0.53c-0.6,0.56 -0.89,0.91 -1.18,1.27c-0.3,0.37 -0.58,0.75 -0.86,1.15c-0.27,0.39 -0.52,0.77 -0.76,1.15c-0.42,0.69 -0.6,1 -0.75,1.28c-0.14,0.26 -0.25,0.49 -0.34,0.71c-0.08,0.2 -0.14,0.38 -0.17,0.55c-0.05,0.29 -0.03,0.43 0,0.56c0.04,0.13 0.12,0.25 0.23,0.35c0.13,0.13 0.31,0.24 0.54,0.35c0.57,0.28 0.94,0.41 1.38,0.56c0.52,0.18 1.15,0.38 1.89,0.6c0.88,0.26 1.91,0.56 3.11,0.89c2.97,0.82 4.77,1.3 6.8,1.85c2.26,0.61 4.75,1.28 7.48,2.03c2.98,0.82 6.22,1.71 9.71,2.69c7.8,2.2 12.11,3.44 16.68,4.79c4.83,1.42 9.9,2.94 15.2,4.59c5.52,1.71 11.25,3.53 17.16,5.5c12.39,4.13 18.8,6.43 25.35,8.81c6.65,2.42 13.34,4.93 20.06,7.51c6.71,2.58 13.38,5.2 19.95,7.88c12.81,5.22 18.95,7.86 24.91,10.45c5.78,2.51 11.35,5 16.72,7.45c5.17,2.36 10.13,4.66 14.86,6.91c8.81,4.19 12.86,6.19 16.71,8.09c3.66,1.8 7.14,3.53 10.48,5.16c3.21,1.57 6.3,3.07 9.33,4.45c5.85,2.67 8.74,3.85 11.6,4.96c2.81,1.09 5.59,2.08 8.33,2.94c2.67,0.84 5.29,1.58 7.86,2.11c4.88,1.01 7.22,1.22 9.45,1.24c2.14,0.02 4.19,-0.19 6.07,-0.83c1.82,-0.62 3.59,-1.58 4.96,-3.14c2.93,-3.34 3.75,-6.15 4.48,-9.09c0.83,-3.29 1.27,-7.16 1.43,-11.52c0.17,-4.9 0,-10.4 -0.57,-16.48c-1.32,-14.21 -2.8,-22.3 -4.37,-31.07c-1.69,-9.45 -3.73,-19.5 -6.07,-30.1c-2.47,-11.18 -5.22,-22.86 -8.31,-34.98c-6.53,-25.65 -10.34,-38.98 -14.24,-52.65c-3.98,-13.96 -8.15,-28.1 -12.42,-42.37c-4.29,-14.37 -8.66,-28.74 -13.02,-43.08c-8.61,-28.31 -12.83,-42.17 -16.94,-55.8c-4.03,-13.37 -7.94,-26.47 -11.73,-39.29c-3.69,-12.5 -7.26,-24.69 -10.64,-36.56c-6.45,-22.61 -9.38,-33.37 -12.17,-43.75c-2.69,-9.99 -5.21,-19.63 -7.56,-28.93c-2.27,-8.93 -4.39,-17.54 -6.35,-25.83c-3.68,-15.58 -5.27,-22.94 -6.78,-29.99c-1.44,-6.74 -2.77,-13.2 -3.99,-19.38c-1.17,-5.89 -2.24,-11.51 -3.21,-16.86c-1.81,-9.89 -2.59,-14.46 -3.32,-18.78c-0.69,-4.08 -1.32,-7.93 -1.89,-11.58c-0.54,-3.44 -1.03,-6.69 -1.45,-9.76c-0.78,-5.64 -1.08,-8.23 -1.36,-10.69c-0.26,-2.31 -0.49,-4.5 -0.69,-6.56c-0.19,-1.94 -0.36,-3.77 -0.52,-5.49c-0.3,-3.13 -0.45,-4.56 -0.61,-5.89c-0.15,-1.25 -0.29,-2.41 -0.45,-3.48c-0.14,-0.99 -0.29,-1.91 -0.45,-2.74c-0.28,-1.44 -0.43,-2.05 -0.61,-2.57c-0.16,-0.44 -0.35,-0.82 -0.61,-1c-0.26,-0.17 -0.62,-0.16 -0.98,0.04c-1.04,0.56 -1.59,1.28 -2.28,2.06c-0.82,0.93 -1.73,2.11 -2.75,3.52c-1.18,1.63 -2.49,3.54 -3.93,5.75c-3.45,5.28 -5.39,8.47 -7.53,11.98c-2.34,3.84 -4.86,8.03 -7.55,12.57c-2.89,4.88 -5.96,10.12 -9.2,15.72c-7.09,12.23 -10.88,18.9 -14.87,25.89c-4.15,7.28 -8.44,14.82 -12.87,22.6c-4.55,7.98 -9.2,16.14 -13.96,24.42c-9.71,16.89 -14.66,25.41 -19.66,33.94c-5.01,8.55 -10.05,17.05 -15.12,25.48c-5.04,8.37 -10.06,16.63 -15.12,24.69c-9.87,15.73 -14.81,23.21 -19.67,30.48c-4.74,7.08 -9.42,13.89 -14.03,20.42c-4.46,6.32 -8.83,12.35 -13.12,18.06c-8.04,10.69 -11.92,15.51 -15.63,20.05c-3.53,4.32 -6.96,8.34 -10.3,12.06c-3.17,3.54 -6.25,6.84 -9.28,9.83c-5.65,5.57 -8.44,7.93 -11.14,10.14c-2.59,2.12 -5.14,4.03 -7.66,5.76c-2.43,1.66 -4.83,3.17 -7.22,4.47c-4.6,2.52 -6.91,3.5 -9.17,4.42c-2.21,0.9 -4.38,1.65 -6.52,2.24c-2.07,0.56 -4.09,1 -6.05,1.16c-3.68,0.29 -5.43,0.02 -7.06,-0.37c-1.58,-0.38 -3.08,-0.98 -4.46,-1.8c-1.37,-0.81 -2.66,-1.83 -3.78,-3.09c-2.31,-2.58 -3.2,-4.31 -4.06,-6.06c-0.9,-1.82 -1.67,-3.81 -2.33,-5.95c-0.69,-2.21 -1.28,-4.57 -1.73,-7.06c-0.94,-5.26 -1.16,-8.1 -1.34,-11.02c-0.19,-3.01 -0.26,-6.13 -0.17,-9.33c0.09,-3.28 0.3,-6.65 0.74,-10.07c0.92,-7.09 1.77,-10.69 2.74,-14.32c0.99,-3.72 2.23,-7.47 3.76,-11.16c1.58,-3.8 3.42,-7.62 5.69,-11.24c4.8,-7.68 7.97,-11.17 11.29,-14.68c3.46,-3.65 7.27,-7.11 11.39,-10.38c4.26,-3.38 8.81,-6.58 13.69,-9.43c10.17,-5.93 15.75,-8.23 21.48,-10.43c5.85,-2.25 11.93,-4.15 18.21,-5.61c6.39,-1.49 12.97,-2.64 19.7,-3.09c13.8,-0.92 20.92,-0.18 28.08,0.76c7.29,0.96 14.64,2.5 22.01,4.57c7.48,2.11 14.99,4.69 22.41,7.96c15.14,6.67 22.51,11.16 29.87,15.78c7.41,4.65 14.66,9.77 21.72,15.27c7.05,5.5 13.91,11.3 20.4,17.55c12.77,12.3 18.51,19.09 24.03,25.9c5.44,6.73 10.54,13.72 15.24,20.98c4.67,7.2 9.05,14.64 12.91,22.43c7.72,15.55 10.77,23.93 13.68,32.35c2.92,8.43 5.44,17.06 7.55,25.84c2.11,8.78 3.89,17.67 5.08,26.67c2.38,17.92 2.64,27 2.68,36c0.04,8.98 -0.4,17.95 -1.41,26.82c-1.01,8.88 -2.47,17.73 -4.76,26.32c-4.62,17.38 -8.31,25.65 -12.2,33.83c-3.98,8.35 -8.76,16.35 -13.82,24.41l-5.51,8.01l-5.96,7.96l-6.41,7.92" fill="#ffff00" id="svg_10" stroke="#000000" stroke-dasharray="null" stroke-linecap="null" stroke-linejoin="null" stroke-opacity="null" stroke-width="5"/>
  <path fill="none" fill-opacity="null" id="svg_11" stroke="#000000" stroke-dasharray="null" stroke-linecap="null" stroke-linejoin="null" stroke-opacity="null" stroke-width="5" transform="scale(1 1) scale(1 1)"/>
 </g>
</svg>